<svg id="graphDiv" width="100%" xmlns="http://www.w3.org/2000/svg" xmlns:xlink="http://www.w3.org/1999/xlink" height="425.5" style="max-width: 1212.25px; width: 100%; height: 100%; overflow: visible; transform: scale(2.26);" viewBox="-22.5 -22.5 1212.25 425.5"><style>#graphDiv{font-family:"trebuchet ms",verdana,arial,sans-serif;font-size:16px;fill:#333;}#graphDiv .error-icon{fill:#552222;}#graphDiv .error-text{fill:#552222;stroke:#552222;}#graphDiv .edge-thickness-normal{stroke-width:2px;}#graphDiv .edge-thickness-thick{stroke-width:3.5px;}#graphDiv .edge-pattern-solid{stroke-dasharray:0;}#graphDiv .edge-pattern-dashed{stroke-dasharray:3;}#graphDiv .edge-pattern-dotted{stroke-dasharray:2;}#graphDiv .marker{fill:#333333;}#graphDiv .marker.cross{stroke:#333333;}#graphDiv svg{font-family:"trebuchet ms",verdana,arial,sans-serif;font-size:16px;}#graphDiv g.classGroup text{fill:#9370DB;fill:#131300;stroke:none;font-family:"trebuchet ms",verdana,arial,sans-serif;font-size:10px;}#graphDiv g.classGroup text .title{font-weight:bolder;}#graphDiv .classTitle{font-weight:bolder;}#graphDiv .node rect,#graphDiv .node circle,#graphDiv .node ellipse,#graphDiv .node polygon,#graphDiv .node path{fill:#ECECFF;stroke:#9370DB;stroke-width:1px;}#graphDiv .divider{stroke:#9370DB;stroke:1;}#graphDiv g.clickable{cursor:pointer;}#graphDiv g.classGroup rect{fill:#ECECFF;stroke:#9370DB;}#graphDiv g.classGroup line{stroke:#9370DB;stroke-width:1;}#graphDiv .classLabel .box{stroke:none;stroke-width:0;fill:#ECECFF;opacity:0.5;}#graphDiv .classLabel .label{fill:#9370DB;font-size:10px;}#graphDiv .relation{stroke:#333333;stroke-width:1;fill:none;}#graphDiv .dashed-line{stroke-dasharray:3;}#graphDiv #compositionStart,#graphDiv .composition{fill:#333333 !important;stroke:#333333 !important;stroke-width:1;}#graphDiv #compositionEnd,#graphDiv .composition{fill:#333333 !important;stroke:#333333 !important;stroke-width:1;}#graphDiv #dependencyStart,#graphDiv .dependency{fill:#333333 !important;stroke:#333333 !important;stroke-width:1;}#graphDiv #dependencyStart,#graphDiv .dependency{fill:#333333 !important;stroke:#333333 !important;stroke-width:1;}#graphDiv #extensionStart,#graphDiv .extension{fill:#333333 !important;stroke:#333333 !important;stroke-width:1;}#graphDiv #extensionEnd,#graphDiv .extension{fill:#333333 !important;stroke:#333333 !important;stroke-width:1;}#graphDiv #aggregationStart,#graphDiv .aggregation{fill:#ECECFF !important;stroke:#333333 !important;stroke-width:1;}#graphDiv #aggregationEnd,#graphDiv .aggregation{fill:#ECECFF !important;stroke:#333333 !important;stroke-width:1;}#graphDiv .edgeTerminals{font-size:11px;}#graphDiv .label div{padding:5px 24px;}#graphDiv .label{font-family:Inter,Arial,sans-serif;color:#ffffff;font-size:15px;font-weight:500;}#graphDiv li{font-family:Inter,Arial,sans-serif;color:#ffffff;font-size:13px;padding-left:0.5em;font-weight:500;text-align:left;}#graphDiv li:first-of-type{padding-top:7px;}#graphDiv ul{margin-top:8px;margin-bottom:1rem;margin-left:-50px;border-top:1px solid #5ae1a8;width:500%;list-style-type:none;}#graphDiv .node rect{fill:#51a0f4;stroke:#51a0f4;color:#ffffff;}#graphDiv .edgeLabel{color:#b9b9b9;background-color:transparent;font-size:12px;}#graphDiv .edge-thickness-normal{stroke-width:1px;!important;}#graphDiv .path{stroke:#d5d5d5 !important;}#graphDiv .edgeLabel{color:#353535;font-size:11px;font-weight:600;}#graphDiv .flowchart-link{stroke:#c0c4ce !important;}#graphDiv #extensionEnd{fill:white;}#graphDiv .cluster rect{fill:#e8f5ff;stroke:#3c60cc;stroke-width:1px;opacity:0.3;stroke-dasharray:6;}#graphDiv .cluster .nodeLabel{font-size:14px;color:#92a7cc;}#graphDiv .fa{padding:0 4px 4px 0 !important;-webkit-transform:scale(1.2);-ms-transform:scale(1.2);transform:scale(1.2);}#graphDiv rect[rx="5"]{fill:#22d097 !important;stroke:#22d097 !important;}#graphDiv rect[rx^="23"]{fill:#f47474 !important;stroke:#f47474 !important;}#graphDiv circle[rx="0"]{fill:#9B84D0;stroke:#9370DB;stroke-width:1px;}#graphDiv .node path{fill:#FF9555 !important;stroke:#FFAB61 !important;stroke-width:1px;}#graphDiv .node polygon{fill:#FF7B65 !important;stroke:#FF7B65 !important;stroke-width:1px;}#graphDiv .node polygon[points*="0,-"]{fill:#3B5DAE !important;stroke:#FFF !important;}#graphDiv .node path + .label ul{border-top:1px solid #FFAB61;}#graphDiv .node polygon + .label ul{border-top:1px solid #5e7ed0;}#graphDiv rect[class="er entityBox"]{fill:#2ea2f7 !important;stroke:#2ea2f7 !important;}#graphDiv marker{fill:#000;}#graphDiv text[class="er entityLabel"]{fill:#ffffff;font-weight:600;font-size:15px !important;font-family:Oxygen,Arial,sans-serif !important;}#graphDiv rect[class="er attributeBoxOdd"]{fill:#0d7ed1 !important;stroke:#2ea2f7 !important;}#graphDiv rect[class="er attributeBoxEven"]{fill:#74b4e3 !important;stroke:#2ea2f7 !important;}#graphDiv text[class="er relationshipLabel"]{fill:#353535;font-weight:600;font-size:11px !important;font-family:Oxygen,Arial,sans-serif !important;}#graphDiv text[class="actor"] &gt; tspan{fill:#ffffff;font-weight:600 !important;font-size:15px !important;font-family:Oxygen,Arial,sans-serif !important;}#graphDiv polygon[class="labelBox"]{fill:#b3d6ee !important;stroke:#93b4c9 !important;}#graphDiv line[class="loopLine"]{fill:#93b4c9 !important;stroke:#93b4c9 !important;}#graphDiv rect[class="actor"]{fill:#2ea2f7;stroke:#2ea2f7;}#graphDiv text[class="noteText"] &gt; tspan{fill:#ffffff;font-weight:600 !important;font-size:13px !important;font-family:Oxygen,Arial,sans-serif !important;}#graphDiv rect[class="note"]{fill:#3B5DAE;stroke:#2b4480;}#graphDiv rect[class=" classShape"]{fill:#2ea2f7 !important;stroke:#2ea2f7 !important;}#graphDiv g.classGroup line{stroke:#2283c9 !important;}#graphDiv g.classGroup text{fill:#ffffff !important;font-weight:600 !important;font-family:Oxygen,Arial,sans-serif !important;}#graphDiv g.classLabel .label{fill:#3B5DAE !important;font-weight:600 !important;font-family:Oxygen,Arial,sans-serif !important;}#graphDiv:root{--mermaid-font-family:"trebuchet ms",verdana,arial,sans-serif;}#graphDiv class{fill:apa;}</style><g></g><defs><marker id="extensionStart" class="extension" refX="0" refY="7" markerWidth="190" markerHeight="240" orient="auto"><path d="M 1,7 L18,13 V 1 Z"></path></marker></defs><defs><marker id="extensionEnd" refX="19" refY="7" markerWidth="20" markerHeight="28" orient="auto"><path d="M 1,1 V 13 L18,7 Z"></path></marker></defs><defs><marker id="compositionStart" class="extension" refX="0" refY="7" markerWidth="190" markerHeight="240" orient="auto"><path d="M 18,7 L9,13 L1,7 L9,1 Z"></path></marker></defs><defs><marker id="compositionEnd" refX="19" refY="7" markerWidth="20" markerHeight="28" orient="auto"><path d="M 18,7 L9,13 L1,7 L9,1 Z"></path></marker></defs><defs><marker id="aggregationStart" class="extension" refX="0" refY="7" markerWidth="190" markerHeight="240" orient="auto"><path d="M 18,7 L9,13 L1,7 L9,1 Z"></path></marker></defs><defs><marker id="aggregationEnd" refX="19" refY="7" markerWidth="20" markerHeight="28" orient="auto"><path d="M 18,7 L9,13 L1,7 L9,1 Z"></path></marker></defs><defs><marker id="dependencyStart" class="extension" refX="0" refY="7" markerWidth="190" markerHeight="240" orient="auto"><path d="M 5,7 L9,13 L1,7 L9,1 Z"></path></marker></defs><defs><marker id="dependencyEnd" refX="19" refY="7" markerWidth="20" markerHeight="28" orient="auto"><path d="M 18,7 L9,13 L14,7 L9,1 Z"></path></marker></defs><g id="classid-Room-5622" class="classGroup" transform="translate(124,80 )"><rect x="0" y="0" width="70" height="71" class=" classShape"></rect><text y="15" x="0"><tspan class="title" x="19">Room</tspan></text><line x1="0" y1="21" y2="21" x2="70"></line><text x="5" y="31" fill="white" class="classText"><tspan x="5">-idRoom</tspan><tspan x="5" dy="10">-linkRoom</tspan><tspan x="5" dy="10">-createdAt</tspan><tspan x="5" dy="10">-finishedAt</tspan></text><line x1="0" y1="67" y2="67" x2="70"></line><text x="5" y="82" fill="white" class="classText"></text></g><g id="classid-Score-5623" class="classGroup" transform="translate(0,221 )"><rect x="0" y="0" width="49" height="41" class=" classShape"></rect><text y="15" x="0"><tspan class="title" x="8.5">Score</tspan></text><line x1="0" y1="21" y2="21" x2="49"></line><text x="5" y="31" fill="white" class="classText"><tspan x="5">-score</tspan></text><line x1="0" y1="37" y2="37" x2="49"></line><text x="5" y="52" fill="white" class="classText"></text></g><g id="classid-Player-5624" class="classGroup" transform="translate(14.75,332 )"><rect x="0" y="0" width="61" height="51" class=" classShape"></rect><text y="15" x="0"><tspan class="title" x="13">Player</tspan></text><line x1="0" y1="21" y2="21" x2="61"></line><text x="5" y="31" fill="white" class="classText"><tspan x="5">-idPlayer</tspan><tspan x="5" dy="10">-pseudo</tspan></text><line x1="0" y1="47" y2="47" x2="61"></line><text x="5" y="62" fill="white" class="classText"></text></g><g id="classid-PlayerWithAccount-5625" class="classGroup" transform="translate(99,211 )"><rect x="0" y="0" width="120" height="61" class=" classShape"></rect><text y="15" x="0"><tspan class="title" x="6.5">PlayerWithAccount</tspan></text><line x1="0" y1="21" y2="21" x2="120"></line><text x="5" y="31" fill="white" class="classText"><tspan x="5">-login</tspan><tspan x="5" dy="10">-password</tspan><tspan x="5" dy="10">-isAdmin</tspan></text><line x1="0" y1="57" y2="57" x2="120"></line><text x="5" y="72" fill="white" class="classText"></text></g><g id="classid-RoomParameters-5626" class="classGroup" transform="translate(269,201 )"><rect x="0" y="0" width="116" height="81" class=" classShape"></rect><text y="15" x="0"><tspan class="title" x="10.5">RoomParameters</tspan></text><line x1="0" y1="21" y2="21" x2="116"></line><text x="5" y="31" fill="white" class="classText"><tspan x="5">-idGameParameters</tspan><tspan x="5" dy="10">-nbMaxPlayer</tspan><tspan x="5" dy="10">-showScore</tspan><tspan x="5" dy="10">-oneAnswerOnly</tspan><tspan x="5" dy="10">-createdAt</tspan></text><line x1="0" y1="77" y2="77" x2="116"></line><text x="5" y="92" fill="white" class="classText"></text></g><g id="classid-Game-5627" class="classGroup" transform="translate(433,337 )"><rect x="0" y="0" width="59" height="41" class=" classShape"></rect><text y="15" x="0"><tspan class="title" x="13.5">Game</tspan></text><line x1="0" y1="21" y2="21" x2="59"></line><text x="5" y="31" fill="white" class="classText"><tspan x="5">-idGame</tspan></text><line x1="0" y1="37" y2="37" x2="59"></line><text x="5" y="52" fill="white" class="classText"></text></g><g id="classid-Quiz-5628" class="classGroup" transform="translate(599.5,226.5 )"><rect x="0" y="0" width="38" height="30" class=" classShape"></rect><text y="15" x="0"><tspan class="title" x="6.5">Quiz</tspan></text><line x1="0" y1="21" y2="21" x2="38"></line><text x="5" y="31" fill="white" class="classText"></text><line x1="0" y1="26" y2="26" x2="38"></line><text x="5" y="41" fill="white" class="classText"></text></g><g id="classid-CultureQuiz-5629" class="classGroup" transform="translate(307.5,100.5 )"><rect x="0" y="0" width="79" height="30" class=" classShape"></rect><text y="15" x="0"><tspan class="title" x="6.5">CultureQuiz</tspan></text><line x1="0" y1="21" y2="21" x2="79"></line><text x="5" y="31" fill="white" class="classText"></text><line x1="0" y1="26" y2="26" x2="79"></line><text x="5" y="41" fill="white" class="classText"></text></g><g id="classid-SportQuiz-5630" class="classGroup" transform="translate(609.25,100.5 )"><rect x="0" y="0" width="67" height="30" class=" classShape"></rect><text y="15" x="0"><tspan class="title" x="6.5">SportQuiz</tspan></text><line x1="0" y1="21" y2="21" x2="67"></line><text x="5" y="31" fill="white" class="classText"></text><line x1="0" y1="26" y2="26" x2="67"></line><text x="5" y="41" fill="white" class="classText"></text></g><g id="classid-Question-5631" class="classGroup" transform="translate(748.75,211 )"><rect x="0" y="0" width="119" height="61" class=" classShape"></rect><text y="15" x="0"><tspan class="title" x="34.5">Question</tspan></text><line x1="0" y1="21" y2="21" x2="119"></line><text x="5" y="31" fill="white" class="classText"><tspan x="5">-idQuestion</tspan><tspan x="5" dy="10">-textQuestion</tspan><tspan x="5" dy="10">-toValidatedQuestion</tspan></text><line x1="0" y1="57" y2="57" x2="119"></line><text x="5" y="72" fill="white" class="classText"></text></g><g id="classid-Answer-5632" class="classGroup" transform="translate(769.75,332 )"><rect x="0" y="0" width="77" height="51" class=" classShape"></rect><text y="15" x="0"><tspan class="title" x="18">Answer</tspan></text><line x1="0" y1="21" y2="21" x2="77"></line><text x="5" y="31" fill="white" class="classText"><tspan x="5">-idAnswer</tspan><tspan x="5" dy="10">-textAnswer</tspan></text><line x1="0" y1="47" y2="47" x2="77"></line><text x="5" y="62" fill="white" class="classText"></text></g><g id="classid-HistoryCultureQuiz-5633" class="classGroup" transform="translate(341.25,0 )"><rect x="0" y="0" width="119" height="30" class=" classShape"></rect><text y="15" x="0"><tspan class="title" x="6.5">HistoryCultureQuiz</tspan></text><line x1="0" y1="21" y2="21" x2="119"></line><text x="5" y="31" fill="white" class="classText"></text><line x1="0" y1="26" y2="26" x2="119"></line><text x="5" y="41" fill="white" class="classText"></text></g><g id="classid-GeoCulturQuiz-5634" class="classGroup" transform="translate(510.25,0 )"><rect x="0" y="0" width="94" height="30" class=" classShape"></rect><text y="15" x="0"><tspan class="title" x="6.5">GeoCulturQuiz</tspan></text><line x1="0" y1="21" y2="21" x2="94"></line><text x="5" y="31" fill="white" class="classText"></text><line x1="0" y1="26" y2="26" x2="94"></line><text x="5" y="41" fill="white" class="classText"></text></g><g id="classid-BasketQuiz-5635" class="classGroup" transform="translate(655.75,0 )"><rect x="0" y="0" width="77" height="30" class=" classShape"></rect><text y="15" x="0"><tspan class="title" x="6.5">BasketQuiz</tspan></text><line x1="0" y1="21" y2="21" x2="77"></line><text x="5" y="31" fill="white" class="classText"></text><line x1="0" y1="26" y2="26" x2="77"></line><text x="5" y="41" fill="white" class="classText"></text></g><g id="classid-PetanqueQuiz-5636" class="classGroup" transform="translate(782.75,0 )"><rect x="0" y="0" width="91" height="30" class=" classShape"></rect><text y="15" x="0"><tspan class="title" x="6.5">PetanqueQuiz</tspan></text><line x1="0" y1="21" y2="21" x2="91"></line><text x="5" y="31" fill="white" class="classText"></text><line x1="0" y1="26" y2="26" x2="91"></line><text x="5" y="41" fill="white" class="classText"></text></g><g id="classid-JSPQuiz-5637" class="classGroup" transform="translate(891.75,100.5 )"><rect x="0" y="0" width="59" height="30" class=" classShape"></rect><text y="15" x="0"><tspan class="title" x="6.5">JSPQuiz</tspan></text><line x1="0" y1="21" y2="21" x2="59"></line><text x="5" y="31" fill="white" class="classText"></text><line x1="0" y1="26" y2="26" x2="59"></line><text x="5" y="41" fill="white" class="classText"></text></g><g id="classid-MovieJSPQuiz-5638" class="classGroup" transform="translate(923.75,0 )"><rect x="0" y="0" width="92" height="30" class=" classShape"></rect><text y="15" x="0"><tspan class="title" x="6.5">MovieJSPQuiz</tspan></text><line x1="0" y1="21" y2="21" x2="92"></line><text x="5" y="31" fill="white" class="classText"></text><line x1="0" y1="26" y2="26" x2="92"></line><text x="5" y="41" fill="white" class="classText"></text></g><g id="classid-TVShowJSPQuiz-5639" class="classGroup" transform="translate(1065.75,0 )"><rect x="0" y="0" width="104" height="30" class=" classShape"></rect><text y="15" x="0"><tspan class="title" x="6.5">TVShowJSPQuiz</tspan></text><line x1="0" y1="21" y2="21" x2="104"></line><text x="5" y="31" fill="white" class="classText"></text><line x1="0" y1="26" y2="26" x2="104"></line><text x="5" y="41" fill="white" class="classText"></text></g><path d="M124,131.24349442379182L107.41666666666667,138.70291201982653C90.83333333333333,146.1623296158612,57.666666666666664,161.0811648079306,41.083333333333336,176.04058240396532C24.5,191,24.5,206,24.5,213.5L24.5,221" id="edge6481" class="relation"></path><g class="classLabel"><rect class="box" x="-2.5" y="-2.5" width="5" height="5"></rect><text class="label" x="53.73033907849125" y="162.85178056320655" fill="red" text-anchor="middle"></text></g><g class="cardinality"><text class="type1" x="110.54906985442612" y="131.81136608085131" fill="black" font-size="6">1..1</text></g><g class="cardinality"><text class="type2" x="29.5" y="208.5" fill="black" font-size="6">1..n</text></g><path d="M24.5,262L24.5,269.5C24.5,277,24.5,292,26.212046204620464,303.6666666666667C27.924092409240927,315.3333333333333,31.34818481848185,323.6666666666667,33.06023102310231,327.8333333333333L34.772277227722775,332" id="edge6482" class="relation"></path><g class="classLabel"><rect class="box" x="-2.5" y="-2.5" width="5" height="5"></rect><text class="label" x="24.5" y="298.0140637804029" fill="red" text-anchor="middle"></text></g><g class="cardinality"><text class="type1" x="19.5" y="274.5" fill="black" font-size="6">1..n</text></g><g class="cardinality"><text class="type2" x="34.64635413745773" y="318.5376768953" fill="black" font-size="6">1..1</text></g><path d="M159,151L159,155.16666666666666C159,159.33333333333334,159,167.66666666666666,159,177.66666666666666C159,187.66666666666666,159,199.33333333333334,159,205.16666666666666L159,211" id="edge6483" class="relation"></path><g class="classLabel"><rect class="box" x="-2.5" y="-2.5" width="5" height="5"></rect><text class="label" x="159.00000000000003" y="181" fill="red" text-anchor="middle"></text></g><g class="cardinality"><text class="type1" x="154" y="163.5" fill="black" font-size="6">1..n</text></g><g class="cardinality"><text class="type2" x="164" y="198.5" fill="black" font-size="6">1..1</text></g><path d="M194,128.10416666666666L216.16666666666666,136.08680555555554C238.33333333333334,144.06944444444443,282.6666666666667,160.0347222222222,304.8333333333333,172.18402777777774C327,184.33333333333334,327,192.66666666666666,327,196.83333333333334L327,201" id="edge6484" class="relation"></path><g class="classLabel"><rect class="box" x="-2.5" y="-2.5" width="5" height="5"></rect><text class="label" x="272.2606463828883" y="156.28731610812346" fill="red" text-anchor="middle"></text></g><g class="cardinality"><text class="type1" x="204.06655327297224" y="137.0436579946121" fill="black" font-size="6">0..n</text></g><g class="cardinality"><text class="type2" x="332" y="188.5" fill="black" font-size="6">1..1</text></g><path d="M327,282L327,286.1666666666667C327,290.3333333333333,327,298.6666666666667,344.6666666666667,309.41758917589175C362.3333333333333,320.1685116851168,397.6666666666667,333.3370233702337,415.3333333333333,339.9212792127921L433,346.50553505535055" id="edge6485" class="relation"></path><g class="classLabel"><rect class="box" x="-2.5" y="-2.5" width="5" height="5"></rect><text class="label" x="368.28702815251347" y="322.3874163963242" fill="red" text-anchor="middle"></text></g><g class="cardinality"><text class="type1" x="322" y="294.5" fill="black" font-size="6">0..n</text></g><g class="cardinality"><text class="type2" x="423.0331686050539" y="337.4549951850049" fill="black" font-size="6">1..n</text></g><path d="M808.25,272L808.25,277.8333333333333C808.25,283.6666666666667,808.25,295.3333333333333,808.25,305.3333333333333C808.25,315.3333333333333,808.25,323.6666666666667,808.25,327.8333333333333L808.25,332" id="edge6486" class="relation"></path><g class="classLabel"><rect class="box" x="-2.5" y="-2.5" width="5" height="5"></rect><text class="label" x="808.25" y="302" fill="red" text-anchor="middle"></text></g><g class="cardinality"><text class="type1" x="803.25" y="284.5" fill="black" font-size="6">1..1</text></g><g class="cardinality"><text class="type2" x="813.25" y="319.5" fill="black" font-size="6">1..*</text></g><path d="M159,272L159,277.8333333333333C159,283.6666666666667,159,295.3333333333333,145.125,307.3265567765568C131.25,319.3197802197802,103.5,331.63956043956046,89.625,337.79945054945057L75.75,343.9593406593407" id="edge6487" class="relation" marker-end="url(#dependencyEnd)"></path><g class="classLabel"><rect class="box" x="-2.5" y="-2.5" width="5" height="5"></rect><text class="label" x="133.36959998417055" y="318.37877099603855" fill="red" text-anchor="middle"></text></g><path d="M618.5,256.5L618.5,264.9166666666667C618.5,273.3333333333333,618.5,290.1666666666667,597.4166666666666,305.4083867521368C576.3333333333334,320.65010683760687,534.1666666666666,334.3002136752137,513.0833333333334,341.1252670940171L492,347.9503205128205" id="edge6488" class="relation" marker-end="url(#dependencyEnd)"></path><g class="classLabel"><rect class="box" x="-2.5" y="-2.5" width="5" height="5"></rect><text class="label" x="579.2726472717401" y="319.6985981588277" fill="red" text-anchor="middle"></text></g><path d="M347,130.5L347,138.08333333333334C347,145.66666666666666,347,160.83333333333334,389.0833333333333,178.56936771025167C431.1666666666667,196.30540208717002,515.3333333333334,216.61080417434007,557.4166666666666,226.7635052179251L599.5,236.91620626151013" id="edge6489" class="relation" marker-end="url(#dependencyEnd)"></path><g class="classLabel"><rect class="box" x="-2.5" y="-2.5" width="5" height="5"></rect><text class="label" x="451.1344892430776" y="201.12268525017157" fill="red" text-anchor="middle"></text></g><path d="M380.59375,30L374.9947916666667,34.166666666666664C369.3958333333333,38.333333333333336,358.1979166666667,46.666666666666664,352.5989583333333,58.416666666666664C347,70.16666666666667,347,85.33333333333333,347,92.91666666666667L347,100.5" id="edge6490" class="relation" marker-end="url(#dependencyEnd)"></path><g class="classLabel"><rect class="box" x="-2.5" y="-2.5" width="5" height="5"></rect><text class="label" x="347" y="56.81235424491031" fill="red" text-anchor="middle"></text></g><path d="M525.46875,30L516.640625,34.166666666666664C507.8125,38.333333333333336,490.15625,46.666666666666664,465.5974087465565,58.416666666666664C441.0385674931129,70.16666666666667,409.5771349862259,85.33333333333333,393.8464187327824,92.91666666666667L378.11570247933884,100.5" id="edge6491" class="relation" marker-end="url(#dependencyEnd)"></path><g class="classLabel"><rect class="box" x="-2.5" y="-2.5" width="5" height="5"></rect><text class="label" x="451.6885327460224" y="65.03261967223624" fill="red" text-anchor="middle"></text></g><path d="M636.7376033057851,130.5L633.698002754821,138.08333333333334C630.6584022038568,145.66666666666666,624.5792011019283,160.83333333333334,621.5396005509642,176.83333333333334C618.5,192.83333333333334,618.5,209.66666666666666,618.5,218.08333333333334L618.5,226.5" id="edge6492" class="relation" marker-end="url(#dependencyEnd)"></path><g class="classLabel"><rect class="box" x="-2.5" y="-2.5" width="5" height="5"></rect><text class="label" x="618.5" y="176.74051115211097" fill="red" text-anchor="middle"></text></g><path d="M674.9375,30L669.5729166666666,34.166666666666664C664.2083333333334,38.333333333333336,653.4791666666666,46.666666666666664,648.1145833333334,58.416666666666664C642.75,70.16666666666667,642.75,85.33333333333333,642.75,92.91666666666667L642.75,100.5" id="edge6493" class="relation" marker-end="url(#dependencyEnd)"></path><g class="classLabel"><rect class="box" x="-2.5" y="-2.5" width="5" height="5"></rect><text class="label" x="642.75" y="57.37210047471772" fill="red" text-anchor="middle"></text></g><path d="M803.125,30L796.1458333333334,34.166666666666664C789.1666666666666,38.333333333333336,775.2083333333334,46.666666666666664,753.3758608815427,58.416666666666664C731.5433884297521,70.16666666666667,701.8367768595041,85.33333333333333,686.9834710743802,92.91666666666667L672.1301652892562,100.5" id="edge6494" class="relation" marker-end="url(#dependencyEnd)"></path><g class="classLabel"><rect class="box" x="-2.5" y="-2.5" width="5" height="5"></rect><text class="label" x="738.4082941141737" y="66.66179920753157" fill="red" text-anchor="middle"></text></g><path d="M915.7334710743802,130.5L912.9445592286502,138.08333333333334C910.1556473829202,145.66666666666666,904.5778236914601,160.83333333333334,858.2055785123966,178.5938799762329C811.8333333333334,196.35442661913248,724.6666666666666,216.708853238265,681.0833333333334,226.88606654783123L637.5,237.0632798573975" id="edge6495" class="relation" marker-end="url(#dependencyEnd)"></path><g class="classLabel"><rect class="box" x="-2.5" y="-2.5" width="5" height="5"></rect><text class="label" x="791.854721648951" y="201.01966392867632" fill="red" text-anchor="middle"></text></g><path d="M951.5625,30L946.5104166666666,34.166666666666664C941.4583333333334,38.333333333333336,931.3541666666666,46.666666666666664,926.3020833333334,58.416666666666664C921.25,70.16666666666667,921.25,85.33333333333333,921.25,92.91666666666667L921.25,100.5" id="edge6496" class="relation" marker-end="url(#dependencyEnd)"></path><g class="classLabel"><rect class="box" x="-2.5" y="-2.5" width="5" height="5"></rect><text class="label" x="921.2499999999999" y="58.10408658111056" fill="red" text-anchor="middle"></text></g><path d="M1090,30L1082.2916666666667,34.166666666666664C1074.5833333333333,38.333333333333336,1059.1666666666667,46.666666666666664,1035.9583333333333,58.48843537414965C1012.75,70.31020408163265,981.75,85.62040816326531,966.25,93.27551020408163L950.75,100.93061224489796" id="edge6497" class="relation" marker-end="url(#dependencyEnd)"></path><g class="classLabel"><rect class="box" x="-2.5" y="-2.5" width="5" height="5"></rect><text class="label" x="1020.8194026177171" y="66.3249072785969" fill="red" text-anchor="middle"></text></g><path d="M420.15625,30L425.546875,34.166666666666664C430.9375,38.333333333333336,441.71875,46.666666666666664,447.109375,60.916666666666664C452.5,75.16666666666667,452.5,95.33333333333333,452.5,115.5C452.5,135.66666666666666,452.5,155.83333333333334,501.875,175.00749590067934C551.25,194.1816584680253,650,212.3633169360506,699.375,221.45414617006327L748.75,230.5449754040759" id="edge6498" class="relation"></path><g class="classLabel"><rect class="box" x="-2.5" y="-2.5" width="5" height="5"></rect><text class="label" x="521.02332608392" y="188.6163818931743" fill="red" text-anchor="middle"></text></g><g class="cardinality"><text class="type1" x="426.98848029269357" y="41.6004581473147" fill="black" font-size="6">1..1</text></g><g class="cardinality"><text class="type2" x="737.3620050485636" y="223.3641975223934" fill="black" font-size="6">1..n</text></g><path d="M563.625,30L565.3958333333334,34.166666666666664C567.1666666666666,38.333333333333336,570.7083333333334,46.666666666666664,572.4791666666666,60.916666666666664C574.25,75.16666666666667,574.25,95.33333333333333,574.25,115.5C574.25,135.66666666666666,574.25,155.83333333333334,603.3333333333334,174.05751424501423C632.4166666666666,192.28169515669515,690.5833333333334,208.5633903133903,719.6666666666666,216.70423789173788L748.75,224.84508547008548" id="edge6499" class="relation"></path><g class="classLabel"><rect class="box" x="-2.5" y="-2.5" width="5" height="5"></rect><text class="label" x="590.1600480564307" y="180.4534536226334" fill="red" text-anchor="middle"></text></g><path d="M656.2004132231405,130.5L663.000344352617,138.08333333333334C669.8002754820936,145.66666666666666,683.4001377410468,160.83333333333334,700.1078296847727,174.25C716.8155216284987,187.66666666666666,736.6310432569975,199.33333333333334,746.5388040712469,205.16666666666666L756.4465648854962,211" id="edge6500" class="relation"></path><g class="classLabel"><rect class="box" x="-2.5" y="-2.5" width="5" height="5"></rect><text class="label" x="700.3914734287737" y="177.99677761424425" fill="red" text-anchor="middle"></text></g><path d="M711.875,30L716.7708333333334,34.166666666666664C721.6666666666666,38.333333333333336,731.4583333333334,46.666666666666664,736.3541666666666,60.916666666666664C741.25,75.16666666666667,741.25,95.33333333333333,741.25,115.5C741.25,135.66666666666666,741.25,155.83333333333334,747.2169211195928,171.75C753.1838422391858,187.66666666666666,765.1176844783716,199.33333333333334,771.0846055979645,205.16666666666666L777.0515267175573,211" id="edge6501" class="relation"></path><g class="classLabel"><rect class="box" x="-2.5" y="-2.5" width="5" height="5"></rect><text class="label" x="741.25" y="121.24713117534299" fill="red" text-anchor="middle"></text></g><path d="M838.9375,30L841.90625,34.166666666666664C844.875,38.333333333333336,850.8125,46.666666666666664,853.78125,60.916666666666664C856.75,75.16666666666667,856.75,95.33333333333333,856.75,115.5C856.75,135.66666666666666,856.75,155.83333333333334,852.4306615776081,171.75C848.1113231552163,187.66666666666666,839.4726463104325,199.33333333333334,835.1533078880407,205.16666666666666L830.8339694656488,211" id="edge6502" class="relation"></path><g class="classLabel"><rect class="box" x="-2.5" y="-2.5" width="5" height="5"></rect><text class="label" x="856.75" y="121.92688713429631" fill="red" text-anchor="middle"></text></g><path d="M934.6384297520661,130.5L941.4070247933884,138.08333333333334C948.1756198347108,145.66666666666666,961.7128099173555,160.83333333333334,950.564738292011,175.4438622754491C939.4166666666666,190.05439121756487,903.5833333333334,204.1087824351297,885.6666666666666,211.13597804391216L867.75,218.1631736526946" id="edge6503" class="relation"></path><g class="classLabel"><rect class="box" x="-2.5" y="-2.5" width="5" height="5"></rect><text class="label" x="949.8885817243413" y="185.94714309614162" fill="red" text-anchor="middle"></text></g><path d="M990,30L995.625,34.166666666666664C1001.25,38.333333333333336,1012.5,46.666666666666664,1018.125,60.916666666666664C1023.75,75.16666666666667,1023.75,95.33333333333333,1023.75,115.5C1023.75,135.66666666666666,1023.75,155.83333333333334,997.75,173.819218870843C971.75,191.8051044083527,919.75,207.61020881670535,893.75,215.5127610208817L867.75,223.41531322505801" id="edge6504" class="relation"></path><g class="classLabel"><rect class="box" x="-2.5" y="-2.5" width="5" height="5"></rect><text class="label" x="1023.7280363002449" y="176.00667574168892" fill="red" text-anchor="middle"></text></g><path d="M1117.75,30L1117.75,34.166666666666664C1117.75,38.333333333333336,1117.75,46.666666666666664,1117.75,60.916666666666664C1117.75,75.16666666666667,1117.75,95.33333333333333,1117.75,115.5C1117.75,135.66666666666666,1117.75,155.83333333333334,1076.0833333333333,174.73465266558966C1034.4166666666667,193.63597199784599,951.0833333333334,211.27194399569194,909.4166666666666,220.08992999461495L867.75,228.90791599353796" id="edge6505" class="relation"></path><g class="classLabel"><rect class="box" x="-2.5" y="-2.5" width="5" height="5"></rect><text class="label" x="1064.16818028022" y="187.33960966606008" fill="red" text-anchor="middle"></text></g></svg>